<?xml version="1.0" encoding="UTF-8"?>
<!-- Generator: Adobe Illustrator 21.0.0, SVG Export Plug-In . SVG Version: 6.00 Build 0)  -->
<svg version="1.1" id="Layer_1" xmlns="http://www.w3.org/2000/svg" xmlns:xlink="http://www.w3.org/1999/xlink" x="0px" y="0px" viewBox="0 0 31.8 31.2" style="enable-background:new 0 0 31.8 31.2;" xml:space="preserve">
<style type="text/css">
	.st0{fill:#B895F1;}
	.st1{fill:#FFFFFF;}
</style>
<path class="st0" d="M0,15.6C0,7,7.1,0,15.9,0c8.8,0,15.9,7,15.9,15.6c0,8.6-7.1,15.6-15.9,15.6C7.1,31.2,0,24.2,0,15.6"/>
<path class="st1" d="M25.4,10L25.4,10l-1.8-3.6c-0.1-0.2-0.4-0.2-0.5,0L21.2,10c0,0.1,0,0.2,0,0.2c0,0.1,0.1,0.1,0.2,0.1h1.6v1.4  c0,0.7-0.4,1.1-1.1,1.1h-5.8v-2.5h1.6c0.1,0,0.2-0.1,0.2-0.2V6.5c0-0.1-0.1-0.2-0.2-0.2h-3.6c-0.1,0-0.2,0.1-0.2,0.2v3.6  c0,0.1,0.1,0.2,0.2,0.2h1.6v2.5H9.8c-0.7,0-1.1-0.4-1.1-1.1v-1.5c1-0.1,1.8-1,1.8-2c0-1.1-0.9-2-2.1-2c-1.1,0-2.1,0.9-2.1,2  c0,1,0.8,1.9,1.8,2v1.5c0,1,0.6,1.6,1.6,1.6h5.9v2c-1.1,0.1-1.9,1-1.9,2.1c0,0.7,0.3,1.3,0.8,1.7c-1.4,0.5-2.2,1.8-2.2,3.3v2.2h0.5  v-2.2c0-1.4,1-2.7,2.4-3c0.1,0,0.2-0.1,0.2-0.2c0-0.1,0-0.2-0.1-0.2c-0.6-0.3-1-0.8-1-1.5c0-0.9,0.8-1.6,1.7-1.6  c0.9,0,1.7,0.7,1.7,1.6c0,0.7-0.4,1.2-1,1.5c-0.1,0-0.2,0.2-0.2,0.2c0,0.1,0.1,0.2,0.2,0.2c1.4,0.3,2.4,1.5,2.4,3v2.2h0.5v-2.2  c0-1.5-0.9-2.8-2.2-3.3c0.5-0.4,0.8-1,0.8-1.7c0-1.1-0.8-2-1.9-2.1v-2H22c1,0,1.6-0.6,1.6-1.6v-1.4h1.6c0.1,0,0.2,0,0.2-0.1  C25.4,10.1,25.4,10.1,25.4,10z M8.5,9.8c-0.9,0-1.6-0.7-1.6-1.5c0-0.8,0.7-1.5,1.6-1.5c0.9,0,1.5,0.7,1.5,1.5  C10,9.2,9.3,9.8,8.5,9.8z M14.3,9.8V6.8h3.1v3.1H14.3z M21.9,9.8l1.4-2.8l1.4,2.8H21.9z"/>
</svg>